<svg xmlns="http://www.w3.org/2000/svg" version="1.1" xmlns:xlink="http://www.w3.org/1999/xlink" width="512" height="512" x="0" y="0" viewBox="0 0 24 24" style="enable-background:new 0 0 512 512" xml:space="preserve" class=""><g><path fill="#20bf55" d="M20 1H6a3 3 0 0 0-3 3v16a1 1 0 0 0 2 0 1 1 0 0 1 1-1h14a1 1 0 0 0 1-1V2a1 1 0 0 0-1-1z" opacity="1" data-original="#20bf55" class=""></path><path fill="#109138" d="M21 19H6a1 1 0 0 0 0 2h14a1 1 0 0 1 0 2H6a3 3 0 0 1 0-6h15z" opacity="1" data-original="#109138"></path><path fill="#fcbf49" d="M15 7H9a1 1 0 0 1 0-2h6a1 1 0 0 1 0 2z" opacity="1" data-original="#fcbf49" class=""></path></g></svg>