<svg xmlns="http://www.w3.org/2000/svg" version="1.1" xmlns:xlink="http://www.w3.org/1999/xlink" width="512" height="512" x="0" y="0" viewBox="0 0 48 48" style="enable-background:new 0 0 512 512" xml:space="preserve" class=""><g><path d="M11 6H5a3 3 0 0 0-3 3v30a3 3 0 0 0 3 3h6a3 3 0 0 0 3-3V9a3 3 0 0 0-3-3zm0 30H5a1 1 0 0 1 0-2h6a1 1 0 0 1 0 2zm0-22H5a1 1 0 0 1 0-2h6a1 1 0 0 1 0 2zM24 6h-6a3 3 0 0 0-3 3v30a3 3 0 0 0 3 3h6a3 3 0 0 0 3-3V9a3 3 0 0 0-3-3zm0 30h-6a1 1 0 0 1 0-2h6a1 1 0 0 1 0 2zm0-22h-6a1 1 0 0 1 0-2h6a1 1 0 0 1 0 2zM46.9 36.671 39.132 7.693a3 3 0 0 0-3.674-2.121l-5.795 1.553a3 3 0 0 0-2.122 3.675l7.765 28.978A3 3 0 0 0 38.98 41.9l5.8-1.553a3 3 0 0 0 2.12-3.676zM31.733 14.852a1 1 0 0 1-.518-1.932l5.8-1.553a1 1 0 0 1 .518 1.932zm11.49 19.7-5.8 1.553a1 1 0 0 1-.518-1.932l5.8-1.552a1 1 0 1 1 .518 1.931z" fill="#000000" opacity="1" data-original="#000000" class=""></path></g></svg>